<?xml version="1.0" encoding="iso-8859-1"?>
<!-- Generator: Adobe Illustrator 19.0.0, SVG Export Plug-In . SVG Version: 6.00 Build 0)  -->
<svg version="1.1" id="Capa_1" xmlns="http://www.w3.org/2000/svg" xmlns:xlink="http://www.w3.org/1999/xlink" x="0px" y="0px"
	 viewBox="0 0 464 464" style="enable-background:new 0 0 464 464;" xml:space="preserve">
<g>
	<g>
		<rect x="112" y="416" width="16" height="16"/>
	</g>
</g>
<g>
	<g>
		<path d="M456,0H104c-4.418,0-8,3.582-8,8v280H80c-4.418,0-8,3.582-8,8v8H0v16h72v112H0v16h72v8c0,4.418,3.582,8,8,8h80
			c4.418,0,8-3.582,8-8v-8h22.144c21.703,10.497,45.492,15.966,69.6,16H340c15.442,0.021,27.977-12.48,27.998-27.922
			c0.01-7.562-3.043-14.805-8.462-20.078c4.375-4.3,7.207-9.925,8.056-16H456c4.418,0,8-3.582,8-8V8C464,3.582,460.418,0,456,0z
			 M152,448H88V304h64V448z M340,344c6.627,0,12,5.373,12,12c0,6.627-5.373,12-12,12h-20v16h20c6.627,0,12,5.373,12,12
			c0,6.627-5.373,12-12,12h-20v16h20c6.627,0,12,5.373,12,12c0,6.627-5.373,12-12,12h-80.224c-22.287-0.039-44.262-5.242-64.2-15.2
			c-1.114-0.54-2.338-0.814-3.576-0.8h-24V320h24c1.936,0,3.806-0.702,5.264-1.976l14.352-12.56
			C241.711,279.268,256.149,239.391,249.8,200h1.6c13.147-0.043,24.625,8.898,27.8,21.656c5.538,21.952,3.966,45.094-4.488,66.096
			L274.584,288H256v16h84c6.627,0,12,5.373,12,12c0,6.627-5.373,12-12,12h-20v16H340z M448,384h-82.808
			c-1.403-2.977-3.317-5.685-5.656-8c11.046-10.715,11.314-28.355,0.599-39.401c-0.197-0.203-0.396-0.402-0.599-0.599
			c11.068-10.768,11.311-28.47,0.542-39.538c-5.273-5.42-12.517-8.473-20.078-8.462h-48.44c7.871-22.599,8.959-47.007,3.128-70.216
			c-4.937-19.87-22.79-33.811-43.264-33.784H240c-4.418,0.001-7.999,3.584-7.998,8.002c0,0.652,0.08,1.301,0.238,1.934
			c9.191,36.381-2.852,74.839-31.152,99.48L188.992,304H168v-8c0-4.418-3.582-8-8-8h-48V16h336V384z"/>
	</g>
</g>
<g>
	<g>
		<rect x="144" y="48" width="112" height="16"/>
	</g>
</g>
<g>
	<g>
		<rect x="144" y="96" width="272" height="16"/>
	</g>
</g>
<g>
	<g>
		<rect x="144" y="144" width="272" height="16"/>
	</g>
</g>
<g>
	<g>
		<rect x="328" y="192" width="88" height="16"/>
	</g>
</g>
<g>
	<g>
		<rect x="328" y="240" width="88" height="16"/>
	</g>
</g>
<g>
</g>
<g>
</g>
<g>
</g>
<g>
</g>
<g>
</g>
<g>
</g>
<g>
</g>
<g>
</g>
<g>
</g>
<g>
</g>
<g>
</g>
<g>
</g>
<g>
</g>
<g>
</g>
<g>
</g>
</svg>
