<?xml version="1.0" encoding="utf-8"?>
<!-- Generator: Adobe Illustrator 22.0.1, SVG Export Plug-In . SVG Version: 6.00 Build 0)  -->
<svg version="1.1" id="Layer_1" xmlns="http://www.w3.org/2000/svg" xmlns:xlink="http://www.w3.org/1999/xlink" x="0px" y="0px"
	 viewBox="0 0 425.2 294.8" style="enable-background:new 0 0 425.2 294.8;" xml:space="preserve">
<style type="text/css">
	.st0{fill:url(#SVGID_1_);}
	.st1{fill:url(#SVGID_2_);}
	.st2{fill:url(#SVGID_3_);}
	.st3{fill:url(#SVGID_4_);}
	.st4{fill:#5EBFC6;}
	.st5{fill:#F6A64E;}
	.st6{fill:#FFFFFF;}
	.st7{fill:url(#SVGID_5_);}
	.st8{fill:url(#SVGID_6_);}
	.st9{fill:url(#SVGID_7_);}
	.st10{fill:url(#SVGID_8_);}
</style>
<g>
	<linearGradient id="SVGID_1_" gradientUnits="userSpaceOnUse" x1="276.1978" y1="172.148" x2="328.7564" y2="78.9758">
		<stop  offset="0" style="stop-color:#2E73B8"/>
		<stop  offset="1" style="stop-color:#1A5A8E"/>
	</linearGradient>
	<polygon class="st0" points="344.2,74.9 282.1,182.4 282.1,182.4 282.1,182.4 257.3,182.4 257.3,182.4 257.3,182.4 269.7,160.9 
		319.4,74.9 	"/>
	<linearGradient id="SVGID_2_" gradientUnits="userSpaceOnUse" x1="203.1313" y1="112.5402" x2="243.803" y2="181.6536">
		<stop  offset="0" style="stop-color:#2E73B8"/>
		<stop  offset="1" style="stop-color:#1A5A8E"/>
	</linearGradient>
	<polygon class="st1" points="244.9,117.9 220,117.9 180.3,117.9 180.3,139.4 232.4,139.4 232.4,139.4 257.3,182.4 269.7,160.9 	"/>
	<linearGradient id="SVGID_3_" gradientUnits="userSpaceOnUse" x1="77.3045" y1="128.613" x2="171.6711" y2="128.9116">
		<stop  offset="0" style="stop-color:#F6A64E"/>
		<stop  offset="1" style="stop-color:#DD8026"/>
	</linearGradient>
	<path class="st2" d="M158.8,128.7c0,14-9,26-21.5,30.4c-3.4,1.2-7,1.8-10.8,1.8H94.3V96.4h32.3c3.8,0,7.4,0.6,10.8,1.8
		C149.9,102.7,158.8,114.6,158.8,128.7c0-11.2,5.7-21,14.3-26.8c-7.6-13.1-20.5-22.7-35.8-25.9c-3.5-0.7-7.1-1.1-10.8-1.1H72.8
		v107.5h53.8c3.7,0,7.3-0.4,10.8-1.1c15.3-3.1,28.3-12.7,35.8-25.9C164.5,149.7,158.8,139.9,158.8,128.7z"/>
	<linearGradient id="SVGID_4_" gradientUnits="userSpaceOnUse" x1="143.249" y1="129.4437" x2="218.5034" y2="128.5478">
		<stop  offset="0" style="stop-color:#A6D8E4"/>
		<stop  offset="1" style="stop-color:#5EBFC6"/>
	</linearGradient>
	<path class="st3" d="M201.8,74.9h-10.8c-3.7,0-7.3,0.4-10.8,1.1c-24.5,5-43,26.7-43,52.7c0,26,18.5,47.7,43,52.7
		c3.5,0.7,7.1,1.1,10.8,1.1h10.8h21.5v-10.7v-10.8h-21.5h-10.8c-0.4,0-0.8,0-1.2,0c-0.7,0-1.4-0.1-2.1-0.1c-0.2,0-0.4,0-0.6-0.1
		c-0.3,0-0.6-0.1-0.9-0.1l-0.8-0.1c-0.5-0.1-1.1-0.2-1.6-0.3c-0.4-0.1-0.7-0.2-1.1-0.3c-0.8-0.2-1.6-0.4-2.3-0.7
		c-0.3-0.1-0.7-0.2-1-0.4c-0.4-0.1-0.8-0.3-1.1-0.5c-0.4-0.2-0.7-0.3-1.1-0.5c-0.3-0.2-0.7-0.3-1-0.5c-0.3-0.2-0.7-0.4-1-0.6
		c0,0-0.1,0-0.1-0.1c-0.3-0.2-0.6-0.3-0.9-0.5c-0.3-0.2-0.7-0.4-1-0.6c-1.4-0.9-2.6-1.9-3.8-3c-0.2-0.2-0.5-0.4-0.7-0.7
		c-0.2-0.2-0.4-0.4-0.7-0.6c-0.4-0.5-0.9-0.9-1.3-1.4c-0.1-0.1-0.2-0.3-0.3-0.4c-0.9-1.1-1.8-2.3-2.6-3.6c-0.2-0.3-0.3-0.6-0.5-0.8
		c-0.3-0.6-0.7-1.1-0.9-1.7c-0.2-0.3-0.3-0.6-0.4-0.9c-0.3-0.5-0.5-1.1-0.7-1.6c-0.1-0.1-0.1-0.3-0.2-0.4c-0.1-0.2-0.2-0.5-0.3-0.7
		c-0.1-0.3-0.2-0.6-0.3-0.9c-0.7-2.2-1.2-4.5-1.4-6.9c0-0.3-0.1-0.6-0.1-0.9c0-0.2,0-0.4,0-0.6c0-0.2,0-0.4,0-0.6c0-0.3,0-0.7,0-1
		c0-0.3,0-0.7,0-1c0-0.2,0-0.4,0-0.6c0-0.2,0-0.4,0-0.6c0-0.3,0-0.6,0.1-0.9c0.2-2,0.5-3.9,1.1-5.7c0.1-0.2,0.1-0.4,0.2-0.6
		c0.1-0.2,0.1-0.4,0.2-0.6c0.1-0.3,0.2-0.6,0.3-0.9c0.1-0.3,0.2-0.5,0.3-0.7c0.1-0.1,0.1-0.3,0.2-0.4c0.2-0.5,0.4-1.1,0.7-1.6
		c0.1-0.3,0.3-0.6,0.4-0.9c0.3-0.6,0.6-1.2,0.9-1.7c0.2-0.3,0.3-0.6,0.5-0.8c0.5-0.8,1.1-1.6,1.7-2.4c0.2-0.3,0.4-0.5,0.6-0.8
		c0.1-0.1,0.2-0.3,0.3-0.4c0.1-0.1,0.2-0.3,0.3-0.4c0.4-0.5,0.8-0.9,1.3-1.4c0.2-0.2,0.4-0.4,0.7-0.6c0.2-0.2,0.5-0.5,0.7-0.7
		c1.2-1.1,2.5-2.1,3.8-3c0.3-0.2,0.6-0.4,1-0.6c0.3-0.2,0.6-0.4,0.9-0.5c0,0,0.1,0,0.1-0.1c0.3-0.2,0.7-0.4,1-0.6
		c0.3-0.2,0.7-0.4,1-0.5c0.3-0.2,0.7-0.3,1.1-0.5c0.4-0.2,0.8-0.3,1.1-0.5c0.3-0.1,0.7-0.3,1-0.4c0.4-0.1,0.7-0.3,1.1-0.4
		c0.2-0.1,0.4-0.1,0.6-0.2c0.2-0.1,0.4-0.1,0.6-0.2c0.4-0.1,0.7-0.2,1.1-0.3c0.5-0.1,1-0.2,1.6-0.3c0.3,0,0.6-0.1,0.8-0.1
		c0.3,0,0.6-0.1,0.9-0.1c0.2,0,0.4-0.1,0.6-0.1c0.7-0.1,1.4-0.1,2.1-0.1c0.4,0,0.8,0,1.2,0h10.8h21.5V85.7V74.9H201.8z"/>
	<g>
		<g>
			<path class="st4" d="M73.6,215.2h1.7c0,0.9,0.3,1.6,0.9,2.2c0.6,0.6,1.3,0.9,2.2,0.9c0.9,0,1.6-0.3,2.2-0.9
				c0.6-0.6,0.9-1.3,0.9-2.2c0-0.4-0.1-0.8-0.3-1.2c-0.2-0.4-0.4-0.7-0.8-1c-0.3-0.3-0.7-0.5-1.1-0.7c-0.2-0.1-0.7-0.2-1.2-0.4
				c-0.7-0.2-1.2-0.3-1.4-0.4c-0.5-0.2-0.9-0.4-1.3-0.7c-0.4-0.4-0.8-0.8-1-1.3c-0.2-0.5-0.3-1-0.3-1.6c0-1.2,0.4-2.2,1.3-3
				s1.9-1.2,3.1-1.2c1.1,0,2.1,0.4,3,1.2c0.8,0.8,1.2,1.8,1.2,2.9l-1.6,0c0-0.8-0.3-1.4-0.8-1.9c-0.5-0.5-1.2-0.7-2-0.7
				c-0.7,0-1.4,0.3-1.9,0.8c-0.5,0.5-0.7,1.1-0.7,1.9c0,0.8,0.3,1.4,1,1.9c0.4,0.3,1.1,0.5,2.1,0.8c1,0.3,1.5,0.4,1.5,0.5
				c0.6,0.2,1,0.5,1.5,0.9c0.4,0.4,0.7,0.8,1,1.4c0.2,0.6,0.4,1.2,0.4,1.8c0,1.3-0.5,2.3-1.4,3.2c-0.9,0.9-2,1.3-3.3,1.3
				c-1.3,0-2.5-0.4-3.4-1.3C74,217.7,73.6,216.6,73.6,215.2z"/>
			<path class="st4" d="M92.6,207.9c1.6,0,3,0.6,4.1,1.7c1.2,1.2,1.8,2.5,1.8,4.1c0,1.6-0.6,3.1-1.7,4.3c-1.1,1.2-2.5,1.8-4.2,1.8
				c-1.6,0-3-0.6-4.2-1.7c-1.2-1.2-1.8-2.5-1.8-4.2c0-1.7,0.6-3.1,1.7-4.3C89.5,208.5,91,207.9,92.6,207.9z M92.6,209.4
				c-1.3,0-2.3,0.4-3.2,1.3c-0.9,0.9-1.3,1.9-1.3,3.2c0,1.2,0.4,2.2,1.3,3.1c0.9,0.9,1.9,1.3,3.1,1.3c1.2,0,2.3-0.4,3.1-1.3
				c0.8-0.9,1.2-2,1.2-3.2c0-1.2-0.4-2.3-1.3-3.1C94.8,209.8,93.8,209.4,92.6,209.4z"/>
			<path class="st4" d="M103.7,219.5v-10h-1.8v-1.4h1.8v-0.2c0-1.2,0.4-2.1,1.1-2.7c0.7-0.7,1.7-1,2.9-1h0.3v1.4h-0.3
				c-0.8,0-1.4,0.2-1.8,0.6c-0.4,0.4-0.6,1-0.6,1.8v0.2h2.8v1.4h-2.8v10H103.7z"/>
			<path class="st4" d="M113,219.5v-10h-2.4v-1.4h2.4v-4h1.5v4h2.7v1.4h-2.7v10H113z"/>
			<path class="st4" d="M128.9,219.5v-15.4h10.9v1.4h-9.3v5.5h9.3v1.4h-9.3v5.6h9.3v1.4H128.9z"/>
			<path class="st4" d="M144.6,219.5v-11.4h1.5v1.7c0.9-1.3,2.1-1.9,3.5-1.9c0.8,0,1.5,0.2,2.2,0.5c0.7,0.3,1.3,0.8,1.8,1.4
				c0.4,0.5,0.7,1.1,0.8,1.6c0.1,0.6,0.2,1.3,0.2,2.1v6h-1.5v-6c0-0.8-0.1-1.3-0.2-1.7c-0.1-0.4-0.3-0.7-0.5-1
				c-0.7-1-1.7-1.5-2.9-1.5c-0.5,0-1,0.1-1.6,0.4c-0.5,0.2-0.9,0.6-1.2,1c-0.2,0.4-0.4,0.8-0.5,1.2c-0.1,0.4-0.1,1-0.1,1.6v6H144.6z
				"/>
			<path class="st4" d="M160.7,219.5v-10h-2.4v-1.4h2.4v-4h1.5v4h2.7v1.4h-2.7v10H160.7z"/>
			<path class="st4" d="M180.1,214.4h-10.3c0,1.1,0.4,2,1.3,2.8c0.9,0.8,1.9,1.2,2.9,1.2c0.9,0,1.7-0.2,2.4-0.7
				c0.8-0.4,1.3-1.1,1.6-1.8h1.6c-0.4,1.1-1.1,2.1-2.2,2.9c-1,0.8-2.2,1.1-3.4,1.1c-1.7,0-3.1-0.6-4.2-1.7c-1.2-1.2-1.7-2.6-1.7-4.2
				c0-1.6,0.6-3,1.7-4.2c1.1-1.2,2.6-1.7,4.2-1.7c0.9,0,1.7,0.2,2.5,0.6c0.8,0.4,1.5,0.9,2.1,1.6c0.5,0.6,0.8,1.3,1,2
				C180,212.7,180.1,213.5,180.1,214.4z M169.8,213h8.8c-0.2-1-0.7-1.9-1.5-2.6c-0.8-0.7-1.8-1-2.8-1c-1.1,0-2,0.3-2.9,1
				C170.5,211.1,170,212,169.8,213z"/>
			<path class="st4" d="M184.5,219.5v-11.4h1.5v1.7c0.3-0.6,0.7-1.1,1.3-1.4c0.6-0.3,1.2-0.5,2-0.5v1.5c-0.7,0-1.4,0.3-2,0.8
				c-0.5,0.4-0.8,0.8-1,1.2c-0.1,0.4-0.2,1-0.2,1.7v6.4H184.5z"/>
			<path class="st4" d="M194.4,219.5v-10H192v-1.4h2.4v-4h1.5v4h2.7v1.4h-2.7v10H194.4z"/>
			<path class="st4" d="M213.9,208.2v11.4h-1.5v-2.2c-0.4,0.8-1,1.4-1.8,1.8c-0.8,0.4-1.7,0.6-2.6,0.6c-0.9,0-1.8-0.2-2.6-0.6
				c-0.9-0.4-1.7-1-2.4-1.8c-0.2-0.3-0.5-0.7-0.7-1.3c-0.3-0.8-0.4-1.5-0.4-2.3c0-0.7,0.1-1.4,0.4-2.1c0.2-0.6,0.5-1.1,0.8-1.3
				c0.8-0.9,1.6-1.5,2.4-1.9c0.8-0.4,1.6-0.6,2.5-0.6c0.9,0,1.8,0.2,2.6,0.6c0.8,0.4,1.4,1,1.8,1.8v-2.2H213.9z M208,209.4
				c-1.2,0-2.3,0.4-3.2,1.3c-0.9,0.9-1.3,1.9-1.3,3.2c0,1.2,0.5,2.3,1.4,3.2c0.9,0.9,2,1.3,3.2,1.3c1.2,0,2.2-0.4,3.1-1.3
				c0.9-0.9,1.3-1.9,1.3-3.1c0-1.3-0.4-2.3-1.3-3.2C210.4,209.9,209.3,209.4,208,209.4z"/>
			<path class="st4" d="M218.9,206.8v-2.6h1.5v2.6H218.9z M218.9,219.5v-11.4h1.5v11.4H218.9z"/>
			<path class="st4" d="M225.3,219.5v-11.4h1.5v1.7c0.9-1.3,2.1-1.9,3.5-1.9c0.8,0,1.5,0.2,2.2,0.5c0.7,0.3,1.3,0.8,1.8,1.4
				c0.4,0.5,0.7,1.1,0.8,1.6c0.1,0.6,0.2,1.3,0.2,2.1v6h-1.5v-6c0-0.8-0.1-1.3-0.2-1.7c-0.1-0.4-0.3-0.7-0.5-1
				c-0.7-1-1.7-1.5-2.9-1.5c-0.5,0-1,0.1-1.6,0.4c-0.5,0.2-0.9,0.6-1.2,1c-0.2,0.4-0.4,0.8-0.5,1.2c-0.1,0.4-0.1,1-0.1,1.6v6H225.3z
				"/>
			<path class="st4" d="M240.1,219.5v-11.4h1.5v1.5c0.3-0.6,0.7-1,1.2-1.3c0.5-0.3,1.1-0.4,1.8-0.4c1.5,0,2.7,0.6,3.7,1.7
				c0.1,0.1,0.1,0.1,0.2,0.2c0.1,0.1,0.1,0.2,0.1,0.2l0.2-0.4c0.4-0.5,0.9-1,1.5-1.3c0.7-0.3,1.3-0.5,2-0.5c1.2,0,2.4,0.6,3.5,1.7
				c0.4,0.4,0.7,0.9,0.9,1.5c0.2,0.6,0.2,1.2,0.2,1.9v6.5h-1.5v-6.4c0-0.5,0-1-0.1-1.4c-0.1-0.4-0.2-0.8-0.5-1.1
				c-0.6-0.9-1.5-1.3-2.6-1.3c-0.5,0-1,0.1-1.4,0.3c-0.5,0.2-0.8,0.5-1.1,0.9c-0.2,0.3-0.4,0.7-0.4,1c-0.1,0.4-0.1,0.9-0.1,1.4v6.4
				h-1.5V213c0-0.5,0-0.9-0.1-1.2c-0.1-0.3-0.2-0.7-0.4-1c-0.6-0.9-1.5-1.4-2.5-1.4c-0.5,0-1,0.1-1.4,0.3c-0.4,0.2-0.8,0.5-1.1,0.9
				c-0.2,0.3-0.4,0.7-0.5,1c-0.1,0.3-0.1,0.8-0.1,1.4v6.5H240.1z"/>
			<path class="st4" d="M273.3,214.4H263c0,1.1,0.4,2,1.3,2.8c0.9,0.8,1.9,1.2,2.9,1.2c0.9,0,1.7-0.2,2.4-0.7
				c0.8-0.4,1.3-1.1,1.6-1.8h1.6c-0.4,1.1-1.1,2.1-2.2,2.9c-1,0.8-2.2,1.1-3.4,1.1c-1.7,0-3.1-0.6-4.2-1.7c-1.2-1.2-1.7-2.6-1.7-4.2
				c0-1.6,0.6-3,1.7-4.2c1.1-1.2,2.6-1.7,4.2-1.7c0.9,0,1.7,0.2,2.5,0.6c0.8,0.4,1.5,0.9,2.1,1.6c0.5,0.6,0.8,1.3,1,2
				C273.2,212.7,273.3,213.5,273.3,214.4z M263,213h8.8c-0.2-1-0.7-1.9-1.5-2.6s-1.8-1-2.8-1c-1.1,0-2,0.3-2.9,1
				C263.7,211.1,263.2,212,263,213z"/>
			<path class="st4" d="M277.7,219.5v-11.4h1.5v1.7c0.9-1.3,2.1-1.9,3.5-1.9c0.8,0,1.5,0.2,2.2,0.5c0.7,0.3,1.3,0.8,1.8,1.4
				c0.4,0.5,0.7,1.1,0.8,1.6c0.1,0.6,0.2,1.3,0.2,2.1v6h-1.5v-6c0-0.8-0.1-1.3-0.2-1.7c-0.1-0.4-0.3-0.7-0.5-1
				c-0.7-1-1.7-1.5-2.9-1.5c-0.5,0-1,0.1-1.6,0.4c-0.5,0.2-0.9,0.6-1.2,1c-0.2,0.4-0.4,0.8-0.5,1.2c-0.1,0.4-0.1,1-0.1,1.6v6H277.7z
				"/>
			<path class="st4" d="M293.8,219.5v-10h-2.4v-1.4h2.4v-4h1.5v4h2.7v1.4h-2.7v10H293.8z"/>
		</g>
		<g>
			<path class="st5" d="M310,219.5v-15.4h3.2c1.4,0,2.5,0.1,3.4,0.3c1.2,0.3,2.2,0.8,3,1.5c0.8,0.7,1.5,1.6,1.9,2.7
				c0.5,1.1,0.7,2.2,0.7,3.3c0,1.1-0.2,2.1-0.7,3.2s-1.1,1.9-1.9,2.6s-1.8,1.2-3,1.5c-0.9,0.2-2,0.3-3.4,0.3H310z M312.9,216.8h0.3
				c1.3,0,2.2-0.1,2.8-0.2c0.6-0.2,1.1-0.4,1.6-0.8c1.2-0.9,1.9-2.2,1.9-3.8c0-0.8-0.2-1.6-0.5-2.3s-0.9-1.3-1.5-1.8
				c-0.6-0.4-1.3-0.7-2.1-0.8c-0.5-0.1-1.3-0.1-2.3-0.1h-0.2V216.8z"/>
			<path class="st5" d="M337.8,215h-8.9c0.2,0.7,0.6,1.2,1.1,1.6c0.6,0.4,1.2,0.6,1.9,0.6c0.5,0,1-0.1,1.5-0.3
				c0.4-0.2,0.8-0.4,1.1-0.7h3c-0.4,1-1.1,1.9-2.1,2.6c-1,0.7-2.2,1.1-3.4,1.1c-1.7,0-3.1-0.6-4.3-1.8c-1.2-1.2-1.8-2.6-1.8-4.3
				c0-1.7,0.6-3.2,1.8-4.4c1.2-1.2,2.6-1.8,4.3-1.8c1.6,0,3,0.6,4.2,1.8c1.2,1.2,1.7,2.6,1.7,4.2c0,0.2,0,0.4,0,0.6
				C337.9,214.6,337.9,214.8,337.8,215z M328.9,212.6h6.3c-0.2-0.7-0.6-1.2-1.2-1.6c-0.6-0.4-1.2-0.6-1.9-0.6c-0.7,0-1.3,0.2-2,0.6
				C329.5,211.4,329.1,211.9,328.9,212.6z"/>
			<path class="st5" d="M345.5,219.5l-4.7-11.5h3.1l2.7,7.6l2.7-7.6h3.1l-4.7,11.5H345.5z"/>
		</g>
	</g>
</g>
</svg>
