<svg width="52" height="44" viewBox="0 0 52 44" version="1.1" xmlns="http://www.w3.org/2000/svg" xmlns:xlink="http://www.w3.org/1999/xlink">
<title>plane ico</title>
<desc>Created using Figma</desc>
<g id="Canvas" transform="translate(-1337 -710)">
<g id="plane ico">
<g id="Shape">
<use xlink:href="#path0_fill" transform="translate(1350.78 713.882)" fill="#C8DAEA"/>
</g>
<g id="Shape">
<use xlink:href="#path1_fill" transform="translate(1357.02 738.887)" fill="#A9C9DD"/>
</g>
<g id="Shape">
<use xlink:href="#path2_fill" transform="translate(1337.88 710.846)" fill="url(#paint2_linear)"/>
</g>
</g>
</g>
<defs>
<linearGradient id="paint2_linear" x1="0" y1="0" x2="1" y2="0" gradientUnits="userSpaceOnUse" gradientTransform="matrix(4.82315 15.5309 -18.6011 4.02707 29.4683 18.5648)">
<stop offset="0" stop-color="#EFF7FC"/>
<stop offset="1" stop-color="#FFFFFF"/>
</linearGradient>
<path id="path0_fill" d="M 6.24 36.8824C 4.72384 36.8824 4.98147 36.3125 4.45856 34.8754L 0 20.2682L 34.32 0"/>
<path id="path1_fill" d="M 0 11.8773C 1.17 11.8773 1.68694 11.3446 2.34 10.7126L 8.58 4.67241L 0.79638 0"/>
<path id="path2_fill" d="M 19.9373 28.0421L 38.7977 41.9134C 40.9499 43.0955 42.5032 42.4835 43.0393 39.9243L 50.7165 3.9104C 51.5025 0.773383 49.5152 -0.649422 47.4563 0.2811L 2.3762 17.5851C -0.700934 18.8138 -0.682994 20.5228 1.81531 21.2842L 13.3839 24.8786L 40.1663 8.05835C 41.4307 7.29511 42.5911 7.70544 41.6387 8.5469"/>
</defs>
</svg>
